<svg data-v-423bf9ae="" xmlns="http://www.w3.org/2000/svg" viewBox="0 0 298 107" class="iconLeft"><!----><!----><!----><g data-v-423bf9ae="" id="f8efd7f9-5efc-4947-91bb-876075fbb8f2" fill="#D1A103" transform="matrix(5.671077545620877,0,0,5.671077545620877,101.29230549234231,0.5245318579351164)"><path d="M1.95 4.97L1.95 4.97L1.95 4.97Q2.66 4.51 3.48 4.25L3.48 4.25L3.48 4.25Q4.30 3.99 5.08 3.99L5.08 3.99L5.08 3.99Q5.18 3.99 5.30 4.00L5.30 4.00L5.30 4.00Q5.42 4.00 5.64 4.02L5.64 4.02L4.75 8.19L6.80 8.19L7.70 4.02L9.72 4.02L7.49 14.49L5.47 14.49L6.59 9.23L4.54 9.23L3.42 14.49L1.40 14.49L3.43 4.97L3.43 4.97Q2.48 5.36 1.97 6.15L1.97 6.15L1.97 6.15Q1.47 6.94 1.47 8.04L1.47 8.04L1.47 8.04Q1.47 8.30 1.51 8.50L1.51 8.50L1.51 8.50Q1.54 8.69 1.62 8.88L1.62 8.88L1.62 8.88Q1.65 8.93 1.66 8.95L1.66 8.95L1.66 8.95Q1.67 8.97 1.67 8.99L1.67 8.99L1.67 8.99Q0.88 8.99 0.53 8.66L0.53 8.66L0.53 8.66Q0.17 8.33 0.17 7.63L0.17 7.63L0.17 7.63Q0.17 6.93 0.64 6.23L0.64 6.23L0.64 6.23Q1.11 5.53 1.95 4.97ZM11.65 13.22L11.65 13.22L11.65 13.22Q12.01 13.22 12.30 12.90L12.30 12.90L12.30 12.90Q12.59 12.59 12.77 11.98L12.77 11.98L13.72 7.49L15.74 7.49L14.73 12.25L14.73 12.25Q14.70 12.38 14.69 12.48L14.69 12.48L14.69 12.48Q14.67 12.59 14.67 12.70L14.67 12.70L14.67 12.70Q14.67 12.98 14.80 13.10L14.80 13.10L14.80 13.10Q14.94 13.22 15.25 13.22L15.25 13.22L15.25 13.22Q15.61 13.22 15.90 12.89L15.90 12.89L15.90 12.89Q16.20 12.57 16.38 11.98L16.38 11.98L16.97 11.98L16.97 11.98Q16.52 13.27 15.81 13.92L15.81 13.92L15.81 13.92Q15.09 14.57 14.15 14.57L14.15 14.57L14.15 14.57Q13.55 14.57 13.19 14.23L13.19 14.23L13.19 14.23Q12.82 13.89 12.77 13.24L12.77 13.24L12.77 13.24Q12.36 13.92 11.85 14.25L11.85 14.25L11.85 14.25Q11.34 14.57 10.70 14.57L10.70 14.57L10.70 14.57Q10.00 14.57 9.60 14.13L9.60 14.13L9.60 14.13Q9.20 13.69 9.20 12.89L9.20 12.89L9.20 12.89Q9.20 12.71 9.23 12.48L9.23 12.48L9.23 12.48Q9.25 12.25 9.31 11.98L9.31 11.98L10.26 7.49L12.28 7.49L11.27 12.25L11.27 12.25Q11.24 12.36 11.24 12.45L11.24 12.45L11.24 12.45Q11.23 12.54 11.23 12.64L11.23 12.64L11.23 12.64Q11.23 12.92 11.33 13.07L11.33 13.07L11.33 13.07Q11.44 13.22 11.65 13.22ZM19.78 12.99L19.78 12.99L19.78 12.99Q19.78 12.74 19.85 12.36L19.85 12.36L19.85 12.36Q19.91 11.98 20.10 11.16L20.10 11.16L20.10 11.16Q20.30 10.36 20.36 10.01L20.36 10.01L20.36 10.01Q20.41 9.66 20.41 9.42L20.41 9.42L20.41 9.42Q20.41 9.07 20.29 8.89L20.29 8.89L20.29 8.89Q20.16 8.71 19.91 8.71L19.91 8.71L19.91 8.71Q19.57 8.71 19.29 9.05L19.29 9.05L19.29 9.05Q19.00 9.39 18.82 10.00L18.82 10.00L17.86 14.49L15.85 14.49L17.33 7.49L19.35 7.49L19.19 8.22L19.19 8.22Q19.54 7.83 19.95 7.63L19.95 7.63L19.95 7.63Q20.36 7.43 20.83 7.43L20.83 7.43L20.83 7.43Q21.57 7.43 21.98 7.84L21.98 7.84L21.98 7.84Q22.39 8.25 22.39 9.02L22.39 9.02L22.39 9.02Q22.39 9.34 22.31 9.78L22.31 9.78L22.31 9.78Q22.23 10.22 22.01 11.13L22.01 11.13L22.01 11.13Q21.83 11.84 21.77 12.14L21.77 12.14L21.77 12.14Q21.71 12.43 21.71 12.63L21.71 12.63L21.71 12.63Q21.71 12.92 21.85 13.07L21.85 13.07L21.85 13.07Q21.99 13.22 22.27 13.22L22.27 13.22L22.27 13.22Q22.62 13.22 22.88 12.98L22.88 12.98L22.88 12.98Q23.13 12.74 23.45 11.98L23.45 11.98L24.04 11.98L24.04 11.98Q23.59 13.29 22.95 13.93L22.95 13.93L22.95 13.93Q22.32 14.57 21.43 14.57L21.43 14.57L21.43 14.57Q20.65 14.57 20.22 14.15L20.22 14.15L20.22 14.15Q19.78 13.72 19.78 12.99ZM23.34 12.89L23.34 12.89L23.34 12.89Q23.34 12.71 23.37 12.48L23.37 12.48L23.37 12.48Q23.39 12.25 23.45 11.98L23.45 11.98L24.95 4.97L27.02 4.69L25.41 12.25L25.41 12.25Q25.38 12.38 25.37 12.48L25.37 12.48L25.37 12.48Q25.35 12.59 25.35 12.70L25.35 12.70L25.35 12.70Q25.35 12.98 25.49 13.10L25.49 13.10L25.49 13.10Q25.62 13.22 25.93 13.22L25.93 13.22L25.93 13.22Q26.32 13.22 26.67 12.87L26.67 12.87L26.67 12.87Q27.02 12.53 27.19 11.98L27.19 11.98L27.78 11.98L27.78 11.98Q27.33 13.26 26.57 13.92L26.57 13.92L26.57 13.92Q25.82 14.57 24.84 14.57L24.84 14.57L24.84 14.57Q24.14 14.57 23.74 14.13L23.74 14.13L23.74 14.13Q23.34 13.69 23.34 12.89ZM29.36 13.22L29.36 13.22L29.36 13.22Q29.72 13.22 30.01 12.90L30.01 12.90L30.01 12.90Q30.30 12.59 30.48 11.98L30.48 11.98L31.43 7.49L33.45 7.49L32.44 12.25L32.44 12.25Q32.41 12.38 32.40 12.48L32.40 12.48L32.40 12.48Q32.38 12.59 32.38 12.70L32.38 12.70L32.38 12.70Q32.38 12.98 32.52 13.10L32.52 13.10L32.52 13.10Q32.65 13.22 32.96 13.22L32.96 13.22L32.96 13.22Q33.32 13.22 33.61 12.89L33.61 12.89L33.61 12.89Q33.91 12.57 34.09 11.98L34.09 11.98L34.68 11.98L34.68 11.98Q34.23 13.27 33.52 13.92L33.52 13.92L33.52 13.92Q32.80 14.57 31.86 14.57L31.86 14.57L31.86 14.57Q31.26 14.57 30.90 14.23L30.90 14.23L30.90 14.23Q30.53 13.89 30.48 13.24L30.48 13.24L30.48 13.24Q30.07 13.92 29.56 14.25L29.56 14.25L29.56 14.25Q29.05 14.57 28.41 14.57L28.41 14.57L28.41 14.57Q27.71 14.57 27.31 14.13L27.31 14.13L27.31 14.13Q26.91 13.69 26.91 12.89L26.91 12.89L26.91 12.89Q26.91 12.71 26.94 12.48L26.94 12.48L26.94 12.48Q26.96 12.25 27.02 11.98L27.02 11.98L27.97 7.49L29.99 7.49L28.98 12.25L28.98 12.25Q28.95 12.36 28.95 12.45L28.95 12.45L28.95 12.45Q28.94 12.54 28.94 12.64L28.94 12.64L28.94 12.64Q28.94 12.92 29.04 13.07L29.04 13.07L29.04 13.07Q29.15 13.22 29.36 13.22Z"></path></g><!----><g data-v-423bf9ae="" id="af655765-7a2d-477d-b1a3-bdc6f47e2b22" transform="matrix(1.0868111504448785,0,0,1.0868111504448785,-13.255261890115804,-0.23894260335429607)" stroke="none" fill="#D1A103"><g clip-rule="evenodd"><path d="M12.983 10.59l17.018 88.223-5.872-59.049 29.021-1.892-.054-9.883L64.549 1 53.622 18.977z"></path><path d="M59.389 54.548l5.16-53.541-8.74 39.716-19.612 1.045 1.57 20.462-7.766 36.583 12.057-39.899z"></path><path d="M62.8 67.182l.549-10.453-15.979 3.755-.032 11.797-17.337 26.532 21.68-27.616zM65.711 62.394l14.841-4.731 1.509-12.532-15.899 2.095zM72.07 44.502l10.988-1.417 1.581-10.278-8.079-.373L64.549 1l8.43 30.967z"></path><path d="M87.413 31.294l1.256-9.506-9.544-2.694L64.549 1l14.483 22.437-.422 7z"></path></g></g><!----></svg>