<svg width="196" height="60" viewBox="0 0 196 60" fill="none" xmlns="http://www.w3.org/2000/svg">
<path d="M10.0945 5.55765C12.7788 3.81852 15.6711 2.45747 18.7713 1.47448C21.8715 0.491493 24.896 0 27.845 0C28.2231 0 28.6389 0.0189035 29.0926 0.0567107C29.5463 0.0567107 30.189 0.0945178 31.0208 0.170132L25.9735 23.8185H37.5992L42.7032 0.170132H54.1588L41.5123 59.5463H30.0567L36.4083 29.7164H24.7826L18.431 59.5463H6.97543L18.4877 5.55765C14.896 7.03214 12.1361 9.26276 10.2079 12.2495C8.31758 15.2363 7.3724 18.8091 7.3724 22.9679C7.3724 23.9509 7.44801 24.8204 7.59924 25.5766C7.71267 26.2949 7.9206 27.0132 8.22306 27.7316C8.33648 27.9206 8.4121 28.0529 8.44991 28.1285C8.48771 28.2042 8.50662 28.2798 8.50662 28.3554C5.51985 28.3554 3.36484 27.7316 2.04159 26.4839C0.680529 25.2363 0 23.2892 0 20.6427C0 17.9962 0.888469 15.3497 2.66541 12.7032C4.44234 10.0567 6.91871 7.67486 10.0945 5.55765ZM65.104 52.3441C66.465 52.3441 67.6938 51.7391 68.7902 50.5293C69.8866 49.3573 70.775 47.6181 71.4556 45.3119L76.8431 19.8488H88.2987L82.5709 46.8431C82.4575 47.3346 82.3818 47.7694 82.344 48.1474C82.2684 48.5633 82.2306 48.9792 82.2306 49.3951C82.2306 50.4537 82.4764 51.2098 82.9679 51.6635C83.4972 52.1172 84.3478 52.3441 85.5198 52.3441C86.8809 52.3441 88.1096 51.7202 89.206 50.4726C90.3403 49.2628 91.2476 47.5425 91.9282 45.3119H95.2741C93.5728 50.189 91.38 53.8563 88.6957 56.3138C85.9735 58.7713 82.8355 60 79.2817 60C77.0132 60 75.1985 59.3573 73.8374 58.0718C72.4386 56.7864 71.6446 54.9149 71.4556 52.4575C69.9055 55.0284 68.1664 56.9376 66.2382 58.1853C64.31 59.3951 62.1361 60 59.7164 60C57.0699 60 54.9905 59.1682 53.4783 57.5047C51.966 55.8412 51.2098 53.4972 51.2098 50.4726C51.2098 49.7921 51.2665 49.017 51.38 48.1474C51.4556 47.2779 51.6068 46.3327 51.8336 45.3119L57.2212 19.8488H68.6767L62.949 46.8431C62.8355 47.259 62.7788 47.6371 62.7788 47.9773C62.741 48.3176 62.7221 48.6768 62.7221 49.0548C62.7221 50.1134 62.9111 50.9263 63.2892 51.4934C63.7051 52.0605 64.31 52.3441 65.104 52.3441ZM111.21 51.0397C111.21 50.0945 111.342 48.9036 111.607 47.4669C111.834 46.0302 112.306 43.7618 113.025 40.6616C113.781 37.6371 114.272 35.4631 114.499 34.1399C114.688 32.8166 114.783 31.7013 114.783 30.794C114.783 29.4707 114.556 28.4688 114.102 27.7883C113.611 27.1078 112.892 26.7675 111.947 26.7675C110.662 26.7675 109.49 27.4102 108.431 28.6957C107.335 29.9811 106.446 31.7769 105.766 34.0832L100.321 59.5463H88.9225L97.3157 19.8488H108.771L107.864 23.9887C109.187 22.5142 110.624 21.3989 112.174 20.6427C113.724 19.8866 115.388 19.5085 117.164 19.5085C119.962 19.5085 122.136 20.2836 123.686 21.8337C125.236 23.3837 126.011 25.6144 126.011 28.5255C126.011 29.7354 125.86 31.172 125.558 32.8355C125.255 34.4991 124.688 37.051 123.856 40.4915C123.176 43.1758 122.722 45.0851 122.495 46.2193C122.268 47.3157 122.155 48.242 122.155 48.9981C122.155 50.0945 122.42 50.9263 122.949 51.4934C123.478 52.0605 124.272 52.3441 125.331 52.3441C126.654 52.3441 127.807 51.8904 128.79 50.983C129.735 50.0756 130.813 48.1853 132.023 45.3119H135.369C133.667 50.2647 131.607 53.9509 129.187 56.3705C126.805 58.7902 123.932 60 120.567 60C117.618 60 115.331 59.2061 113.705 57.6181C112.042 55.9924 111.21 53.7996 111.21 51.0397ZM131.399 50.4726C131.399 49.7921 131.456 49.017 131.569 48.1474C131.645 47.2779 131.796 46.3327 132.023 45.3119L140.529 5.55765L152.268 3.96975L143.138 46.8431C143.025 47.3346 142.949 47.7694 142.911 48.1474C142.836 48.5633 142.798 48.9792 142.798 49.3951C142.798 50.4537 143.062 51.2098 143.592 51.6635C144.083 52.1172 144.915 52.3441 146.087 52.3441C147.561 52.3441 148.96 51.6824 150.284 50.3592C151.607 49.0737 152.59 47.3913 153.233 45.3119H156.578C154.877 50.1512 152.59 53.8185 149.716 56.3138C146.881 58.7713 143.611 60 139.905 60C137.259 60 135.18 59.1682 133.667 57.5047C132.155 55.8412 131.399 53.4972 131.399 50.4726ZM165.539 52.3441C166.9 52.3441 168.129 51.7391 169.225 50.5293C170.321 49.3573 171.21 47.6181 171.89 45.3119L177.278 19.8488H188.733L183.006 46.8431C182.892 47.3346 182.817 47.7694 182.779 48.1474C182.703 48.5633 182.665 48.9792 182.665 49.3951C182.665 50.4537 182.93 51.2098 183.459 51.6635C183.951 52.1172 184.783 52.3441 185.955 52.3441C187.316 52.3441 188.544 51.7202 189.641 50.4726C190.775 49.2628 191.682 47.5425 192.363 45.3119H195.709C194.008 50.189 191.815 53.8563 189.13 56.3138C186.408 58.7713 183.27 60 179.716 60C177.448 60 175.633 59.3573 174.272 58.0718C172.873 56.7864 172.079 54.9149 171.89 52.4575C170.34 55.0284 168.601 56.9376 166.673 58.1853C164.745 59.3951 162.571 60 160.151 60C157.505 60 155.425 59.1682 153.913 57.5047C152.401 55.8412 151.645 53.4972 151.645 50.4726C151.645 49.7921 151.701 49.017 151.815 48.1474C151.89 47.2779 152.042 46.3327 152.268 45.3119L157.656 19.8488H169.112L163.384 46.8431C163.27 47.259 163.214 47.6371 163.214 47.9773C163.176 48.3176 163.157 48.6768 163.157 49.0548C163.157 50.1134 163.346 50.9263 163.724 51.4934C164.14 52.0605 164.745 52.3441 165.539 52.3441Z" fill="#D1A103"/>
</svg>
