<svg width="83" height="107" viewBox="0 0 83 107" fill="none" xmlns="http://www.w3.org/2000/svg">
<path d="M0 10.4225L18.4954 106.304L12.1136 42.1291L43.6539 40.0729L43.5953 29.3319L56.0425 0L44.1669 19.5376L0 10.4225Z" fill="#D1A103"/>
<path d="M50.4346 58.1966L56.0425 0.00760651L46.5438 43.1714L25.2292 44.3071L26.9355 66.5454L18.4954 106.304L31.599 62.9416L50.4346 58.1966Z" fill="#D1A103"/>
<path d="M54.1417 71.9273L54.7383 60.5669L37.3722 64.6479L37.3374 77.469L18.4954 106.304L42.0574 76.2909L54.1417 71.9273ZM57.3054 66.7237L73.4348 61.582L75.0747 47.9621L57.7955 50.2389L57.3054 66.7237ZM64.2164 47.2785L76.1583 45.7384L77.8766 34.5682L69.0962 34.1628L56.0425 0L65.2043 33.6553L64.2164 47.2785Z" fill="#D1A103"/>
<path d="M80.8914 32.9239L82.2564 22.5926L71.8839 19.6648L56.0425 0L71.7828 24.3848L71.3242 31.9925L80.8914 32.9239Z" fill="#D1A103"/>
</svg>
