<?xml version="1.0" standalone="no"?>
<!DOCTYPE svg PUBLIC "-//W3C//DTD SVG 20010904//EN"
 "http://www.w3.org/TR/2001/REC-SVG-20010904/DTD/svg10.dtd">
<svg version="1.0" xmlns="http://www.w3.org/2000/svg"
 width="3840.000000pt" height="2160.000000pt" viewBox="0 0 3840.000000 2160.000000"
 preserveAspectRatio="xMidYMid meet">
<metadata>
Created by potrace 1.16, written by Peter Selinger 2001-2019
</metadata>
<g transform="translate(0.000000,2160.000000) scale(0.100000,-0.100000)"
fill="#000000" stroke="none">
<path d="M0 10800 l0 -10800 19200 0 19200 0 0 10800 0 10800 -16368 0
c-12717 0 -16371 -3 -16380 -12 -9 -9 -15 -9 -24 0 -9 9 -649 12 -2820 12
l-2808 0 0 -10800z m28078 10341 c44 -38 62 -74 62 -126 0 -37 -6 -48 -42 -84
-39 -38 -47 -41 -97 -41 -51 0 -56 2 -102 49 -54 53 -59 74 -33 137 27 66 67
93 134 93 35 0 52 -6 78 -28z m-8113 -1317 c26 -22 30 -32 30 -76 0 -43 -4
-53 -33 -79 -98 -88 -236 58 -143 152 40 39 102 41 146 3z m2594 -1140 c15 -9
34 -29 44 -46 56 -98 -48 -210 -152 -164 -115 52 -79 224 47 226 19 0 46 -7
61 -16z m1715 -648 c67 -28 94 -103 58 -159 -28 -41 -53 -56 -95 -57 -110 -1
-155 129 -69 200 41 34 58 36 106 16z m1577 -661 c60 -32 86 -113 55 -174 -22
-42 -58 -61 -117 -61 -46 0 -55 4 -85 36 -27 28 -34 44 -34 75 0 103 95 168
181 124z m1449 -810 c43 -22 62 -63 49 -109 -6 -21 -17 -40 -25 -43 -7 -3 -12
-9 -9 -14 9 -13 -30 -29 -70 -29 -29 0 -45 8 -71 34 -36 36 -41 57 -24 101 25
66 89 92 150 60z m-976 -8256 c29 -23 33 -47 11 -88 -25 -49 -90 -49 -118 -1
-23 38 -21 57 8 85 30 30 64 32 99 4z m-631 -2370 c65 -30 42 -138 -29 -139
-36 0 -74 37 -74 73 1 62 48 91 103 66z"/>
</g>
</svg>
